<svg width="58" height="50" viewBox="0 0 58 50" fill="none" xmlns="http://www.w3.org/2000/svg">
<path d="M35.5577 19.0398C35.5577 19.0398 37.2869 1 29.002 1C20.717 1 22.4462 19.0398 22.4462 19.0398C22.4462 19.0398 3.79144 11.9948 1.23125 19.0398C-1.32894 26.0848 18.3945 30.189 18.3945 30.189C18.3945 30.189 5.13605 43.8748 11.8387 48.2288C18.5414 52.5829 29.002 37.0796 29.002 37.0796C29.002 37.0796 39.4625 52.5829 46.1652 48.2288C52.8679 43.8748 39.6094 30.189 39.6094 30.189C39.6094 30.189 59.3328 26.0848 56.7727 19.0398C54.2125 11.9948 35.5577 19.0398 35.5577 19.0398Z" stroke="#A470CF" stroke-width="2"/>
</svg>
